<svg xmlns="http://www.w3.org/2000/svg" width="114" height="102" viewbox="0 0 57 52">
  <rect width="100%" height="100%" x="0" y="0" opacity="0"/>
  <g>
    <path fill="#ffffff"
          d="M21.321674870776008,38.447554499797064 C21.321674870776008,18.534869305185325 37.58551652581268,2.4055942975498086
          57.66433338388265,2.4055942975498086 C77.74315024195259,2.4055942975498086 94.00699189698929,18.534869305185325
          94.00699189698929,38.447554499797064 C94.00699189698929,58.360239694408804 77.74315024195259,74.48951470204432
          57.66433338388265,74.48951470204432 C37.58551652581268,74.48951470204432 21.321674870776008,58.360239694408804
          21.321674870776008,38.447554499797064 z"/>
    <path fill="#ffffff"
          d="M46.713991557987,65.22602310048634 L68.42954560359142,65.22602310048634 L68.42954560359142,65.22602310048634
        C71.2743449628456,65.22602310048634 73.58050497886993,69.1396201165426 73.58050497886993,73.96728429697404
        C73.58050497886993,78.79494675936168 71.27434388844208,82.70854205737564 68.42954560359142,82.70854205737564
        L46.713991557987,82.70854205737564 L46.713991557987,82.70854205737564 C43.86919542194351,82.70854205737564
        41.563032182708774,78.79494675936168 41.563032182708774,73.96728429697404 C41.563032182708774,69.1396183985014
        43.86919542194351,65.22602310048634 46.713991557987,65.22602310048634 z"/>
    <path fill="#ffffff"
          d="M46.33937422151698,89.65960042835894 L69.98599592485328,89.65960042835894 L69.98599592485328,89.65960042835894
          C73.08377064102743,89.65960042835894 75.59500721236954,92.16430174008414 75.59500721236954,95.25400585517184
          C75.59500721236954,98.34370887071302 73.08376947108208,100.84840908289179 69.98599592485328,100.84840908289179
          L46.33937422151698,100.84840908289179 L46.33937422151698,100.84840908289179 C43.24160301517912,100.84840908289179
          40.73036293400051,98.34370887071302 40.73036293400051,95.25400585517184 C40.73036293400051,92.16430064053782
          43.24160301517912,89.65960042835894 46.33937422151698,89.65960042835894 z"/>
  </g>
</svg>
